<?xml version="1.0" encoding="UTF-8" standalone="no"?>
<svg
   xmlns:dc="http://purl.org/dc/elements/1.1/"
   xmlns:cc="http://creativecommons.org/ns#"
   xmlns:rdf="http://www.w3.org/1999/02/22-rdf-syntax-ns#"
   xmlns:svg="http://www.w3.org/2000/svg"
   xmlns="http://www.w3.org/2000/svg"
   xmlns:sodipodi="http://sodipodi.sourceforge.net/DTD/sodipodi-0.dtd"
   xmlns:inkscape="http://www.inkscape.org/namespaces/inkscape"
   sodipodi:docname="Sample.svg"
   inkscape:version="1.0 (4035a4fb49, 2020-05-01)"
   id="svg31"
   version="1.1"
   viewBox="0 0 210 297"
   height="297mm"
   width="210mm">
  <defs
     id="defs25" />
  <sodipodi:namedview
     inkscape:window-maximized="0"
     inkscape:window-y="255"
     inkscape:window-x="2295"
     inkscape:window-height="1080"
     inkscape:window-width="1274"
     showgrid="false"
     inkscape:document-rotation="0"
     inkscape:current-layer="layer1"
     inkscape:document-units="mm"
     inkscape:cy="243.16154"
     inkscape:cx="395.70098"
     inkscape:zoom="2.2425443"
     inkscape:pageshadow="2"
     inkscape:pageopacity="0.0"
     borderopacity="1.0"
     bordercolor="#666666"
     pagecolor="#ffffff"
     id="base" />
  <metadata
     id="metadata28">
    <rdf:RDF>
      <cc:Work
         rdf:about="">
        <dc:format>image/svg+xml</dc:format>
        <dc:type
           rdf:resource="http://purl.org/dc/dcmitype/StillImage" />
        <dc:title></dc:title>
      </cc:Work>
    </rdf:RDF>
  </metadata>
  <g
     id="layer1"
     inkscape:groupmode="layer"
     inkscape:label="Layer 1">
    <path
       d="m 139.01528,58.962183 -0.10025,0.153996 c -0.0893,0.13743 -0.0996,1.106493 -0.0982,8.988081 l 0.002,8.834088 0.15658,0.168981 0.15658,0.168466 8.65838,-0.01757 8.65839,-0.01757 0.0155,-9.138975 0.016,-9.139494 h -8.73228 z m 8.2982,0.13901 h 8.23619 l 0.0631,0.177765 c 0.0346,0.09787 0.0625,0.59744 0.0625,1.110012 v 0.931725 l -0.27337,0.0011 c -0.15042,5.3e-4 -0.31001,0.02656 -0.35501,0.05736 -0.0624,0.04294 -0.078,0.38548 -0.0646,1.47278 l 0.0176,1.416968 h 0.28939 0.2899 l 0.0165,3.724836 0.0165,3.724838 -0.30644,0.02119 -0.30592,0.02119 v 1.456759 1.456756 l 0.33176,0.02066 0.33228,0.02066 0.008,1.055235 c 0.006,0.823788 -0.0128,1.085567 -0.0858,1.193208 -0.0924,0.13616 -0.19139,0.138279 -8.19124,0.150378 -4.45366,0.0068 -8.14124,-0.0046 -8.19433,-0.02532 -0.25511,-0.09938 -0.25735,-0.133541 -0.25735,-3.838525 v -3.581694 l 0.19327,0.03049 0.19327,0.03049 v 0.967383 0.966867 l 0.30283,-0.02119 0.30282,-0.02119 -0.0165,-0.944645 c -0.0157,-0.9013 -0.0104,-0.946457 0.11524,-0.98185 0.12296,-0.03465 0.13288,-0.09436 0.14366,-0.893487 0.0157,-1.165731 -0.0118,-2.687995 -0.0527,-2.920236 l -0.0336,-0.190685 h -0.57413 -0.57413 v -3.16054 c 0,-2.046161 0.0235,-3.207991 0.0667,-3.294891 0.0653,-0.13117 0.22606,-0.134358 8.30337,-0.134358 z m 8.70903,5.29e-4 h 0.29662 v 1.102259 1.102776 l -0.25735,0.02635 -0.25786,0.02635 v -1.019056 c 0,-0.560639 -0.0173,-1.068835 -0.0388,-1.129128 -0.0321,-0.09022 0.0134,-0.109556 0.25735,-0.109556 z m -0.24805,2.443779 c 0.003,0.0028 0.007,0.01474 0.0109,0.03617 0.0153,0.08585 0.0153,0.226324 0,0.312126 -0.0153,0.08584 -0.0279,0.01564 -0.0279,-0.156064 0,-0.12876 0.007,-0.200642 0.017,-0.192236 z m -0.42064,0.538985 c 0.14158,0 0.25734,0.03105 0.25734,0.06925 0,0.0382 -0.11576,0.06925 -0.25734,0.06925 -0.14158,0 -0.25735,-0.03105 -0.25735,-0.06925 0,-0.0382 0.11577,-0.06925 0.25735,-0.06925 z m 0.77204,0 c 0.10615,0 0.19327,0.03105 0.19327,0.06925 0,0.0382 -0.0871,0.06925 -0.19327,0.06925 -0.10616,0 -0.19327,-0.03105 -0.19327,-0.06925 0,-0.0382 0.0871,-0.06925 0.19327,-0.06925 z m -0.35967,0.01241 c 0.005,7.94e-4 0.0106,0.004 0.0165,0.01035 0.0236,0.02551 0.0236,0.0671 0,0.0925 -0.0236,0.02551 -0.0429,0.0049 -0.0429,-0.04599 0,-0.03848 0.011,-0.05941 0.0264,-0.05685 z m -0.66972,0.265102 h 0.38602 0.38602 v 0.450617 0.451136 h -0.38602 -0.38602 v -0.451136 z m 1.06143,0 c 0.0759,0 0.0966,0.09607 0.0966,0.450617 0,0.354492 -0.0207,0.451136 -0.0966,0.451136 -0.0759,0 -0.0961,-0.09659 -0.0961,-0.451136 0,-0.354499 0.0202,-0.450617 0.0961,-0.450617 z m -0.58394,0.229444 c -0.15408,-7.94e-4 -0.28332,0.194503 -0.15296,0.363802 0.10006,0.12994 0.24913,0.10658 0.34313,-0.05426 0.054,-0.09239 0.0453,-0.146828 -0.0367,-0.235128 -0.0482,-0.05195 -0.10213,-0.07418 -0.15348,-0.07441 z m -0.18294,0.810803 c 0.20725,0 0.287,0.02593 0.2682,0.08682 -0.0267,0.0866 -0.45768,0.142414 -0.52658,0.06822 -0.0961,-0.103542 -0.0106,-0.15503 0.25838,-0.15503 z m 0.73484,0 c 0.12475,0 0.19327,0.03554 0.19327,0.09973 0,0.0655 -0.066,0.09754 -0.19327,0.09354 -0.11626,-0.0035 -0.19327,-0.04344 -0.19327,-0.09974 0,-0.0576 0.0743,-0.09353 0.19327,-0.09353 z m -0.32815,0.554487 c 0.0374,0.301979 0.0466,0.313031 0.28009,0.33383 l 0.24133,0.0217 v 3.702616 3.702616 l -0.24133,0.0217 c -0.23342,0.02082 -0.24278,0.03185 -0.28009,0.33383 -0.0212,0.17168 -0.0387,-1.654551 -0.0387,-4.05815 0,-2.403599 0.0176,-4.229841 0.0387,-4.05815 z m -16.66099,1.873271 h 0.45733 c 0.39062,0 0.45194,0.01638 0.41858,0.110072 -0.0215,0.06035 -0.0393,0.294582 -0.0393,0.52038 v 0.41031 h -0.41806 -0.41858 v -0.520379 z m 0.0646,1.249019 h 0.38603 0.38602 l -0.007,0.259932 c -0.004,0.142732 -0.021,0.205811 -0.0372,0.139012 -0.0229,-0.09459 -0.0982,-0.121442 -0.34158,-0.121442 -0.24334,0 -0.31865,0.02684 -0.34158,0.121442 -0.0162,0.06677 -0.0331,0.004 -0.0372,-0.139012 z m 0.41807,0.41548 c 0.13878,0 0.16095,0.03135 0.16019,0.225825 -5.3e-4,0.123989 -0.0184,0.295571 -0.0398,0.381373 -0.0436,0.175148 -0.15244,0.212513 -0.15244,0.05219 0,-0.05725 -0.0292,-0.104386 -0.0646,-0.104386 -0.0354,0 -0.0641,-0.124891 -0.0641,-0.277503 0,-0.249769 0.0159,-0.2775 0.16072,-0.2775 z m -0.48266,0.208254 c 0.10618,2e-6 0.19327,0.01217 0.19327,0.02687 0,0.01479 -0.0871,0.04056 -0.19327,0.05736 -0.10618,0.0168 -0.19327,0.0047 -0.19327,-0.02687 0,-0.0315 0.0871,-0.05736 0.19327,-0.05736 z m 0.90072,0.0093 c 0.0292,0 0.0585,0.0049 0.0806,0.01447 0.0442,0.01929 0.008,0.03514 -0.0806,0.03514 -0.0884,0 -0.12434,-0.01593 -0.0801,-0.03514 0.0221,-0.0096 0.0509,-0.01447 0.0801,-0.01447 z m -0.79789,0.444418 c 0.003,0.0065 0.006,0.03364 0.009,0.08372 0.013,0.200292 0.013,0.528336 0,0.728636 -0.013,0.2003 -0.0233,0.03628 -0.0233,-0.364318 0,-0.300435 0.006,-0.467662 0.0145,-0.448035 z m 0.70745,0 c 0.003,0.0065 0.006,0.03364 0.009,0.08372 0.013,0.200292 0.013,0.528336 0,0.728636 -0.013,0.2003 -0.0238,0.03628 -0.0238,-0.364318 0,-0.300435 0.006,-0.467662 0.0145,-0.448035 z m -0.48834,0.249597 0.17467,0.02016 0.17518,0.01963 0.002,1.29346 0.002,1.292945 h -0.17725 -0.17673 v -1.313098 z m -0.22531,1.030944 c 0.0531,0 0.0966,0.03105 0.0966,0.06925 0,0.0382 -0.0436,0.06925 -0.0966,0.06925 -0.0531,0 -0.0966,-0.03105 -0.0966,-0.06925 0,-0.0382 0.0435,-0.06925 0.0966,-0.06925 z m 0.70177,0.01241 c 0.005,7.94e-4 0.0106,0.0045 0.0165,0.01085 0.0236,0.0254 0.0236,0.0671 0,0.0925 -0.0236,0.02551 -0.0429,0.0044 -0.0429,-0.04651 0,-0.0384 0.011,-0.05942 0.0264,-0.05684 z m -0.29972,1.721858 c 0.14336,4e-5 0.17905,0.03268 0.18655,0.173117 0.008,0.14728 -0.019,0.173633 -0.17725,0.173633 -0.15577,0 -0.18604,-0.0286 -0.18604,-0.173633 0,-0.142981 0.0309,-0.173157 0.17674,-0.173117 z m 15.75407,1.317749 c 0.17921,0 0.27803,0.02685 0.25373,0.06925 -0.0219,0.0382 -0.15404,0.06976 -0.29352,0.06976 -0.13949,0 -0.25321,-0.03156 -0.25321,-0.06976 0,-0.0382 0.13164,-0.06925 0.293,-0.06925 z m 0.73639,0 c 0.10615,0 0.19327,0.03105 0.19327,0.06925 0,0.0382 -0.0871,0.06976 -0.19327,0.06976 -0.10616,0 -0.19327,-0.03156 -0.19327,-0.06976 0,-0.0382 0.0871,-0.06925 0.19327,-0.06925 z m -1.02939,0.277503 h 0.38602 0.38602 v 0.451136 0.450617 h -0.38602 -0.38602 v -0.450617 z m 1.06143,0 c 0.0759,0 0.0966,0.09658 0.0966,0.451136 0,0.354584 -0.0207,0.450617 -0.0966,0.450617 -0.0759,0 -0.0961,-0.09607 -0.0961,-0.450617 0,-0.354592 0.0202,-0.451136 0.0961,-0.451136 z m -0.59841,0.223758 c -0.0158,5.29e-4 -0.0311,0.0039 -0.0455,0.0098 -0.1594,0.06592 -0.19487,0.261425 -0.0656,0.363286 0.13228,0.10426 0.35554,0.01633 0.35554,-0.140044 0,-0.118729 -0.13401,-0.237082 -0.24443,-0.23306 z m -0.17364,0.817004 c 0.15927,0 0.28939,0.03105 0.28939,0.06925 0,0.0382 -0.13012,0.06925 -0.28939,0.06925 -0.15926,0 -0.28938,-0.03105 -0.28938,-0.06925 0,-0.0382 0.13012,-0.06925 0.28938,-0.06925 z m 0.74001,0 c 0.10615,0 0.19327,0.03105 0.19327,0.06925 0,0.0382 -0.0871,0.06925 -0.19327,0.06925 -0.10616,0 -0.19327,-0.03105 -0.19327,-0.06925 0,-0.0382 0.0871,-0.06925 0.19327,-0.06925 z m -0.3297,0.520394 c 0.002,0.0016 0.004,0.01315 0.006,0.03462 0.0328,0.30348 0.0409,0.31283 0.27699,0.33383 l 0.24236,0.02119 -0.0176,1.192694 -0.0176,1.192175 -0.31006,0.02119 c -0.30319,0.02085 -0.30856,0.0181 -0.23306,-0.133842 0.0549,-0.1113 0.07,-0.550317 0.0512,-1.547709 -0.0122,-0.669938 -0.0114,-1.12567 0.002,-1.114142 z"
       style="fill:#000000;stroke-width:0.0668134"
       id="path907" />
  </g>
</svg>
